<?xml version="1.0" encoding="utf-8"?>
<svg xmlns="http://www.w3.org/2000/svg" xmlns:xlink="http://www.w3.org/1999/xlink" width="600" height="400" viewBox="0 0 2400 1600">
<defs>
  <clipPath id="clip210">
    <rect x="0" y="0" width="2400" height="1600"/>
  </clipPath>
</defs>
<path clip-path="url(#clip210)" d="M0 1600 L2400 1600 L2400 0 L0 0  Z" fill="#ffffff" fill-rule="evenodd" fill-opacity="1"/>
<defs>
  <clipPath id="clip211">
    <rect x="480" y="0" width="1681" height="1600"/>
  </clipPath>
</defs>
<path clip-path="url(#clip210)" d="M212.459 1423.18 L1875.6 1423.18 L1875.6 183.952 L212.459 183.952  Z" fill="#ffffff" fill-rule="evenodd" fill-opacity="1"/>
<defs>
  <clipPath id="clip212">
    <rect x="212" y="183" width="1664" height="1240"/>
  </clipPath>
</defs>
<polyline clip-path="url(#clip212)" style="stroke:#000000; stroke-linecap:round; stroke-linejoin:round; stroke-width:2; stroke-opacity:0.1; fill:none" points="212.459,1423.18 212.459,183.952 "/>
<polyline clip-path="url(#clip212)" style="stroke:#000000; stroke-linecap:round; stroke-linejoin:round; stroke-width:2; stroke-opacity:0.1; fill:none" points="450.051,1423.18 450.051,183.952 "/>
<polyline clip-path="url(#clip212)" style="stroke:#000000; stroke-linecap:round; stroke-linejoin:round; stroke-width:2; stroke-opacity:0.1; fill:none" points="687.643,1423.18 687.643,183.952 "/>
<polyline clip-path="url(#clip212)" style="stroke:#000000; stroke-linecap:round; stroke-linejoin:round; stroke-width:2; stroke-opacity:0.1; fill:none" points="925.234,1423.18 925.234,183.952 "/>
<polyline clip-path="url(#clip212)" style="stroke:#000000; stroke-linecap:round; stroke-linejoin:round; stroke-width:2; stroke-opacity:0.1; fill:none" points="1162.83,1423.18 1162.83,183.952 "/>
<polyline clip-path="url(#clip212)" style="stroke:#000000; stroke-linecap:round; stroke-linejoin:round; stroke-width:2; stroke-opacity:0.1; fill:none" points="1400.42,1423.18 1400.42,183.952 "/>
<polyline clip-path="url(#clip212)" style="stroke:#000000; stroke-linecap:round; stroke-linejoin:round; stroke-width:2; stroke-opacity:0.1; fill:none" points="1638.01,1423.18 1638.01,183.952 "/>
<polyline clip-path="url(#clip212)" style="stroke:#000000; stroke-linecap:round; stroke-linejoin:round; stroke-width:2; stroke-opacity:0.1; fill:none" points="1875.6,1423.18 1875.6,183.952 "/>
<polyline clip-path="url(#clip210)" style="stroke:#000000; stroke-linecap:round; stroke-linejoin:round; stroke-width:4; stroke-opacity:1; fill:none" points="212.459,1423.18 1875.6,1423.18 "/>
<polyline clip-path="url(#clip210)" style="stroke:#000000; stroke-linecap:round; stroke-linejoin:round; stroke-width:4; stroke-opacity:1; fill:none" points="212.459,1423.18 212.459,1404.28 "/>
<polyline clip-path="url(#clip210)" style="stroke:#000000; stroke-linecap:round; stroke-linejoin:round; stroke-width:4; stroke-opacity:1; fill:none" points="450.051,1423.18 450.051,1404.28 "/>
<polyline clip-path="url(#clip210)" style="stroke:#000000; stroke-linecap:round; stroke-linejoin:round; stroke-width:4; stroke-opacity:1; fill:none" points="687.643,1423.18 687.643,1404.28 "/>
<polyline clip-path="url(#clip210)" style="stroke:#000000; stroke-linecap:round; stroke-linejoin:round; stroke-width:4; stroke-opacity:1; fill:none" points="925.234,1423.18 925.234,1404.28 "/>
<polyline clip-path="url(#clip210)" style="stroke:#000000; stroke-linecap:round; stroke-linejoin:round; stroke-width:4; stroke-opacity:1; fill:none" points="1162.83,1423.18 1162.83,1404.28 "/>
<polyline clip-path="url(#clip210)" style="stroke:#000000; stroke-linecap:round; stroke-linejoin:round; stroke-width:4; stroke-opacity:1; fill:none" points="1400.42,1423.18 1400.42,1404.28 "/>
<polyline clip-path="url(#clip210)" style="stroke:#000000; stroke-linecap:round; stroke-linejoin:round; stroke-width:4; stroke-opacity:1; fill:none" points="1638.01,1423.18 1638.01,1404.28 "/>
<polyline clip-path="url(#clip210)" style="stroke:#000000; stroke-linecap:round; stroke-linejoin:round; stroke-width:4; stroke-opacity:1; fill:none" points="1875.6,1423.18 1875.6,1404.28 "/>
<path clip-path="url(#clip210)" d="M191.232 1481.64 L207.552 1481.64 L207.552 1485.58 L185.607 1485.58 L185.607 1481.64 Q188.269 1478.89 192.853 1474.26 Q197.459 1469.61 198.64 1468.27 Q200.885 1465.74 201.765 1464.01 Q202.667 1462.25 202.667 1460.56 Q202.667 1457.8 200.723 1456.07 Q198.802 1454.33 195.7 1454.33 Q193.501 1454.33 191.047 1455.09 Q188.616 1455.86 185.839 1457.41 L185.839 1452.69 Q188.663 1451.55 191.116 1450.97 Q193.57 1450.39 195.607 1450.39 Q200.977 1450.39 204.172 1453.08 Q207.366 1455.77 207.366 1460.26 Q207.366 1462.39 206.556 1464.31 Q205.769 1466.2 203.663 1468.8 Q203.084 1469.47 199.982 1472.69 Q196.88 1475.88 191.232 1481.64 Z" fill="#000000" fill-rule="nonzero" fill-opacity="1" /><path clip-path="url(#clip210)" d="M227.366 1454.1 Q223.755 1454.1 221.926 1457.66 Q220.121 1461.2 220.121 1468.33 Q220.121 1475.44 221.926 1479.01 Q223.755 1482.55 227.366 1482.55 Q231 1482.55 232.806 1479.01 Q234.635 1475.44 234.635 1468.33 Q234.635 1461.2 232.806 1457.66 Q231 1454.1 227.366 1454.1 M227.366 1450.39 Q233.176 1450.39 236.232 1455 Q239.311 1459.58 239.311 1468.33 Q239.311 1477.06 236.232 1481.67 Q233.176 1486.25 227.366 1486.25 Q221.556 1486.25 218.477 1481.67 Q215.422 1477.06 215.422 1468.33 Q215.422 1459.58 218.477 1455 Q221.556 1450.39 227.366 1450.39 Z" fill="#000000" fill-rule="nonzero" fill-opacity="1" /><path clip-path="url(#clip210)" d="M438.893 1466.95 Q442.25 1467.66 444.125 1469.93 Q446.023 1472.2 446.023 1475.53 Q446.023 1480.65 442.504 1483.45 Q438.986 1486.25 432.505 1486.25 Q430.329 1486.25 428.014 1485.81 Q425.722 1485.39 423.268 1484.54 L423.268 1480.02 Q425.213 1481.16 427.528 1481.74 Q429.842 1482.32 432.366 1482.32 Q436.764 1482.32 439.055 1480.58 Q441.37 1478.84 441.37 1475.53 Q441.37 1472.48 439.217 1470.77 Q437.088 1469.03 433.268 1469.03 L429.241 1469.03 L429.241 1465.19 L433.454 1465.19 Q436.903 1465.19 438.731 1463.82 Q440.56 1462.43 440.56 1459.84 Q440.56 1457.18 438.662 1455.77 Q436.787 1454.33 433.268 1454.33 Q431.347 1454.33 429.148 1454.75 Q426.949 1455.16 424.31 1456.04 L424.31 1451.88 Q426.972 1451.14 429.287 1450.77 Q431.625 1450.39 433.685 1450.39 Q439.009 1450.39 442.111 1452.83 Q445.213 1455.23 445.213 1459.35 Q445.213 1462.22 443.569 1464.21 Q441.926 1466.18 438.893 1466.95 Z" fill="#000000" fill-rule="nonzero" fill-opacity="1" /><path clip-path="url(#clip210)" d="M464.889 1454.1 Q461.278 1454.1 459.449 1457.66 Q457.643 1461.2 457.643 1468.33 Q457.643 1475.44 459.449 1479.01 Q461.278 1482.55 464.889 1482.55 Q468.523 1482.55 470.328 1479.01 Q472.157 1475.44 472.157 1468.33 Q472.157 1461.2 470.328 1457.66 Q468.523 1454.1 464.889 1454.1 M464.889 1450.39 Q470.699 1450.39 473.754 1455 Q476.833 1459.58 476.833 1468.33 Q476.833 1477.06 473.754 1481.67 Q470.699 1486.25 464.889 1486.25 Q459.078 1486.25 456 1481.67 Q452.944 1477.06 452.944 1468.33 Q452.944 1459.58 456 1455 Q459.078 1450.39 464.889 1450.39 Z" fill="#000000" fill-rule="nonzero" fill-opacity="1" /><path clip-path="url(#clip210)" d="M675.814 1455.09 L664.008 1473.54 L675.814 1473.54 L675.814 1455.09 M674.587 1451.02 L680.467 1451.02 L680.467 1473.54 L685.397 1473.54 L685.397 1477.43 L680.467 1477.43 L680.467 1485.58 L675.814 1485.58 L675.814 1477.43 L660.212 1477.43 L660.212 1472.92 L674.587 1451.02 Z" fill="#000000" fill-rule="nonzero" fill-opacity="1" /><path clip-path="url(#clip210)" d="M703.129 1454.1 Q699.517 1454.1 697.689 1457.66 Q695.883 1461.2 695.883 1468.33 Q695.883 1475.44 697.689 1479.01 Q699.517 1482.55 703.129 1482.55 Q706.763 1482.55 708.568 1479.01 Q710.397 1475.44 710.397 1468.33 Q710.397 1461.2 708.568 1457.66 Q706.763 1454.1 703.129 1454.1 M703.129 1450.39 Q708.939 1450.39 711.994 1455 Q715.073 1459.58 715.073 1468.33 Q715.073 1477.06 711.994 1481.67 Q708.939 1486.25 703.129 1486.25 Q697.318 1486.25 694.24 1481.67 Q691.184 1477.06 691.184 1468.33 Q691.184 1459.58 694.24 1455 Q697.318 1450.39 703.129 1450.39 Z" fill="#000000" fill-rule="nonzero" fill-opacity="1" /><path clip-path="url(#clip210)" d="M899.934 1451.02 L918.29 1451.02 L918.29 1454.96 L904.216 1454.96 L904.216 1463.43 Q905.234 1463.08 906.253 1462.92 Q907.271 1462.73 908.29 1462.73 Q914.077 1462.73 917.457 1465.9 Q920.836 1469.08 920.836 1474.49 Q920.836 1480.07 917.364 1483.17 Q913.892 1486.25 907.572 1486.25 Q905.396 1486.25 903.128 1485.88 Q900.883 1485.51 898.475 1484.77 L898.475 1480.07 Q900.559 1481.2 902.781 1481.76 Q905.003 1482.32 907.48 1482.32 Q911.484 1482.32 913.822 1480.21 Q916.16 1478.1 916.16 1474.49 Q916.16 1470.88 913.822 1468.77 Q911.484 1466.67 907.48 1466.67 Q905.605 1466.67 903.73 1467.08 Q901.878 1467.5 899.934 1468.38 L899.934 1451.02 Z" fill="#000000" fill-rule="nonzero" fill-opacity="1" /><path clip-path="url(#clip210)" d="M940.049 1454.1 Q936.438 1454.1 934.609 1457.66 Q932.804 1461.2 932.804 1468.33 Q932.804 1475.44 934.609 1479.01 Q936.438 1482.55 940.049 1482.55 Q943.683 1482.55 945.489 1479.01 Q947.318 1475.44 947.318 1468.33 Q947.318 1461.2 945.489 1457.66 Q943.683 1454.1 940.049 1454.1 M940.049 1450.39 Q945.859 1450.39 948.915 1455 Q951.993 1459.58 951.993 1468.33 Q951.993 1477.06 948.915 1481.67 Q945.859 1486.25 940.049 1486.25 Q934.239 1486.25 931.16 1481.67 Q928.105 1477.06 928.105 1468.33 Q928.105 1459.58 931.16 1455 Q934.239 1450.39 940.049 1450.39 Z" fill="#000000" fill-rule="nonzero" fill-opacity="1" /><path clip-path="url(#clip210)" d="M1148.23 1466.44 Q1145.08 1466.44 1143.23 1468.59 Q1141.4 1470.74 1141.4 1474.49 Q1141.4 1478.22 1143.23 1480.39 Q1145.08 1482.55 1148.23 1482.55 Q1151.38 1482.55 1153.21 1480.39 Q1155.06 1478.22 1155.06 1474.49 Q1155.06 1470.74 1153.21 1468.59 Q1151.38 1466.44 1148.23 1466.44 M1157.51 1451.78 L1157.51 1456.04 Q1155.75 1455.21 1153.95 1454.77 Q1152.17 1454.33 1150.41 1454.33 Q1145.78 1454.33 1143.32 1457.45 Q1140.89 1460.58 1140.55 1466.9 Q1141.91 1464.89 1143.97 1463.82 Q1146.03 1462.73 1148.51 1462.73 Q1153.72 1462.73 1156.73 1465.9 Q1159.76 1469.05 1159.76 1474.49 Q1159.76 1479.82 1156.61 1483.03 Q1153.46 1486.25 1148.23 1486.25 Q1142.24 1486.25 1139.06 1481.67 Q1135.89 1477.06 1135.89 1468.33 Q1135.89 1460.14 1139.78 1455.28 Q1143.67 1450.39 1150.22 1450.39 Q1151.98 1450.39 1153.76 1450.74 Q1155.57 1451.09 1157.51 1451.78 Z" fill="#000000" fill-rule="nonzero" fill-opacity="1" /><path clip-path="url(#clip210)" d="M1177.81 1454.1 Q1174.2 1454.1 1172.37 1457.66 Q1170.57 1461.2 1170.57 1468.33 Q1170.57 1475.44 1172.37 1479.01 Q1174.2 1482.55 1177.81 1482.55 Q1181.45 1482.55 1183.25 1479.01 Q1185.08 1475.44 1185.08 1468.33 Q1185.08 1461.2 1183.25 1457.66 Q1181.45 1454.1 1177.81 1454.1 M1177.81 1450.39 Q1183.62 1450.39 1186.68 1455 Q1189.76 1459.58 1189.76 1468.33 Q1189.76 1477.06 1186.68 1481.67 Q1183.62 1486.25 1177.81 1486.25 Q1172 1486.25 1168.93 1481.67 Q1165.87 1477.06 1165.87 1468.33 Q1165.87 1459.58 1168.93 1455 Q1172 1450.39 1177.81 1450.39 Z" fill="#000000" fill-rule="nonzero" fill-opacity="1" /><path clip-path="url(#clip210)" d="M1373.77 1451.02 L1396 1451.02 L1396 1453.01 L1383.45 1485.58 L1378.57 1485.58 L1390.37 1454.96 L1373.77 1454.96 L1373.77 1451.02 Z" fill="#000000" fill-rule="nonzero" fill-opacity="1" /><path clip-path="url(#clip210)" d="M1415.12 1454.1 Q1411.51 1454.1 1409.68 1457.66 Q1407.87 1461.2 1407.87 1468.33 Q1407.87 1475.44 1409.68 1479.01 Q1411.51 1482.55 1415.12 1482.55 Q1418.75 1482.55 1420.56 1479.01 Q1422.39 1475.44 1422.39 1468.33 Q1422.39 1461.2 1420.56 1457.66 Q1418.75 1454.1 1415.12 1454.1 M1415.12 1450.39 Q1420.93 1450.39 1423.98 1455 Q1427.06 1459.58 1427.06 1468.33 Q1427.06 1477.06 1423.98 1481.67 Q1420.93 1486.25 1415.12 1486.25 Q1409.31 1486.25 1406.23 1481.67 Q1403.17 1477.06 1403.17 1468.33 Q1403.17 1459.58 1406.23 1455 Q1409.31 1450.39 1415.12 1450.39 Z" fill="#000000" fill-rule="nonzero" fill-opacity="1" /><path clip-path="url(#clip210)" d="M1622.88 1469.17 Q1619.55 1469.17 1617.63 1470.95 Q1615.73 1472.73 1615.73 1475.86 Q1615.73 1478.98 1617.63 1480.77 Q1619.55 1482.55 1622.88 1482.55 Q1626.22 1482.55 1628.14 1480.77 Q1630.06 1478.96 1630.06 1475.86 Q1630.06 1472.73 1628.14 1470.95 Q1626.24 1469.17 1622.88 1469.17 M1618.21 1467.18 Q1615.2 1466.44 1613.51 1464.38 Q1611.84 1462.32 1611.84 1459.35 Q1611.84 1455.21 1614.78 1452.8 Q1617.74 1450.39 1622.88 1450.39 Q1628.04 1450.39 1630.98 1452.8 Q1633.92 1455.21 1633.92 1459.35 Q1633.92 1462.32 1632.23 1464.38 Q1630.57 1466.44 1627.58 1467.18 Q1630.96 1467.96 1632.84 1470.26 Q1634.73 1472.55 1634.73 1475.86 Q1634.73 1480.88 1631.66 1483.57 Q1628.6 1486.25 1622.88 1486.25 Q1617.16 1486.25 1614.09 1483.57 Q1611.03 1480.88 1611.03 1475.86 Q1611.03 1472.55 1612.93 1470.26 Q1614.83 1467.96 1618.21 1467.18 M1616.49 1459.79 Q1616.49 1462.48 1618.16 1463.98 Q1619.85 1465.49 1622.88 1465.49 Q1625.89 1465.49 1627.58 1463.98 Q1629.29 1462.48 1629.29 1459.79 Q1629.29 1457.11 1627.58 1455.6 Q1625.89 1454.1 1622.88 1454.1 Q1619.85 1454.1 1618.16 1455.6 Q1616.49 1457.11 1616.49 1459.79 Z" fill="#000000" fill-rule="nonzero" fill-opacity="1" /><path clip-path="url(#clip210)" d="M1653.04 1454.1 Q1649.43 1454.1 1647.6 1457.66 Q1645.8 1461.2 1645.8 1468.33 Q1645.8 1475.44 1647.6 1479.01 Q1649.43 1482.55 1653.04 1482.55 Q1656.68 1482.55 1658.48 1479.01 Q1660.31 1475.44 1660.31 1468.33 Q1660.31 1461.2 1658.48 1457.66 Q1656.68 1454.1 1653.04 1454.1 M1653.04 1450.39 Q1658.85 1450.39 1661.91 1455 Q1664.99 1459.58 1664.99 1468.33 Q1664.99 1477.06 1661.91 1481.67 Q1658.85 1486.25 1653.04 1486.25 Q1647.23 1486.25 1644.16 1481.67 Q1641.1 1477.06 1641.1 1468.33 Q1641.1 1459.58 1644.16 1455 Q1647.23 1450.39 1653.04 1450.39 Z" fill="#000000" fill-rule="nonzero" fill-opacity="1" /><path clip-path="url(#clip210)" d="M1850.73 1484.86 L1850.73 1480.6 Q1852.49 1481.44 1854.29 1481.88 Q1856.1 1482.32 1857.84 1482.32 Q1862.47 1482.32 1864.9 1479.21 Q1867.35 1476.09 1867.7 1469.75 Q1866.35 1471.74 1864.29 1472.8 Q1862.23 1473.87 1859.73 1473.87 Q1854.55 1473.87 1851.52 1470.74 Q1848.51 1467.59 1848.51 1462.15 Q1848.51 1456.83 1851.65 1453.61 Q1854.8 1450.39 1860.03 1450.39 Q1866.03 1450.39 1869.18 1455 Q1872.35 1459.58 1872.35 1468.33 Q1872.35 1476.51 1868.46 1481.39 Q1864.59 1486.25 1858.04 1486.25 Q1856.28 1486.25 1854.48 1485.9 Q1852.67 1485.56 1850.73 1484.86 M1860.03 1470.21 Q1863.18 1470.21 1865.01 1468.06 Q1866.86 1465.9 1866.86 1462.15 Q1866.86 1458.43 1865.01 1456.27 Q1863.18 1454.1 1860.03 1454.1 Q1856.89 1454.1 1855.03 1456.27 Q1853.21 1458.43 1853.21 1462.15 Q1853.21 1465.9 1855.03 1468.06 Q1856.89 1470.21 1860.03 1470.21 Z" fill="#000000" fill-rule="nonzero" fill-opacity="1" /><path clip-path="url(#clip210)" d="M1890.75 1454.1 Q1887.14 1454.1 1885.31 1457.66 Q1883.51 1461.2 1883.51 1468.33 Q1883.51 1475.44 1885.31 1479.01 Q1887.14 1482.55 1890.75 1482.55 Q1894.39 1482.55 1896.19 1479.01 Q1898.02 1475.44 1898.02 1468.33 Q1898.02 1461.2 1896.19 1457.66 Q1894.39 1454.1 1890.75 1454.1 M1890.75 1450.39 Q1896.56 1450.39 1899.62 1455 Q1902.7 1459.58 1902.7 1468.33 Q1902.7 1477.06 1899.62 1481.67 Q1896.56 1486.25 1890.75 1486.25 Q1884.94 1486.25 1881.86 1481.67 Q1878.81 1477.06 1878.81 1468.33 Q1878.81 1459.58 1881.86 1455 Q1884.94 1450.39 1890.75 1450.39 Z" fill="#000000" fill-rule="nonzero" fill-opacity="1" /><path clip-path="url(#clip210)" d="M1004.75 1526.86 L996.033 1550.51 L1013.51 1550.51 L1004.75 1526.86 M1001.13 1520.52 L1008.41 1520.52 L1026.52 1568.04 L1019.84 1568.04 L1015.51 1555.85 L994.091 1555.85 L989.763 1568.04 L982.983 1568.04 L1001.13 1520.52 Z" fill="#000000" fill-rule="nonzero" fill-opacity="1" /><path clip-path="url(#clip210)" d="M1056.67 1549.81 Q1056.67 1543.44 1054.02 1539.94 Q1051.41 1536.44 1046.67 1536.44 Q1041.96 1536.44 1039.32 1539.94 Q1036.71 1543.44 1036.71 1549.81 Q1036.71 1556.14 1039.32 1559.64 Q1041.96 1563.14 1046.67 1563.14 Q1051.41 1563.14 1054.02 1559.64 Q1056.67 1556.14 1056.67 1549.81 M1062.52 1563.62 Q1062.52 1572.72 1058.48 1577.15 Q1054.44 1581.6 1046.1 1581.6 Q1043.01 1581.6 1040.27 1581.13 Q1037.54 1580.68 1034.96 1579.72 L1034.96 1574.03 Q1037.54 1575.43 1040.05 1576.1 Q1042.57 1576.76 1045.18 1576.76 Q1050.94 1576.76 1053.8 1573.74 Q1056.67 1570.75 1056.67 1564.67 L1056.67 1561.77 Q1054.85 1564.92 1052.02 1566.48 Q1049.19 1568.04 1045.24 1568.04 Q1038.68 1568.04 1034.67 1563.05 Q1030.66 1558.05 1030.66 1549.81 Q1030.66 1541.53 1034.67 1536.53 Q1038.68 1531.54 1045.24 1531.54 Q1049.19 1531.54 1052.02 1533.1 Q1054.85 1534.66 1056.67 1537.81 L1056.67 1532.4 L1062.52 1532.4 L1062.52 1563.62 Z" fill="#000000" fill-rule="nonzero" fill-opacity="1" /><path clip-path="url(#clip210)" d="M1105.08 1548.76 L1105.08 1551.62 L1078.15 1551.62 Q1078.53 1557.67 1081.78 1560.85 Q1085.06 1564 1090.88 1564 Q1094.26 1564 1097.41 1563.17 Q1100.59 1562.35 1103.71 1560.69 L1103.71 1566.23 Q1100.56 1567.57 1097.25 1568.27 Q1093.94 1568.97 1090.53 1568.97 Q1082 1568.97 1077 1564 Q1072.04 1559.04 1072.04 1550.57 Q1072.04 1541.82 1076.75 1536.69 Q1081.49 1531.54 1089.51 1531.54 Q1096.71 1531.54 1100.88 1536.18 Q1105.08 1540.8 1105.08 1548.76 M1099.22 1547.04 Q1099.16 1542.23 1096.52 1539.37 Q1093.91 1536.5 1089.58 1536.5 Q1084.68 1536.5 1081.72 1539.27 Q1078.79 1542.04 1078.34 1547.07 L1099.22 1547.04 Z" fill="#000000" fill-rule="nonzero" fill-opacity="1" /><polyline clip-path="url(#clip212)" style="stroke:#000000; stroke-linecap:round; stroke-linejoin:round; stroke-width:2; stroke-opacity:0.1; fill:none" points="212.459,1161.25 1875.6,1161.25 "/>
<polyline clip-path="url(#clip212)" style="stroke:#000000; stroke-linecap:round; stroke-linejoin:round; stroke-width:2; stroke-opacity:0.1; fill:none" points="212.459,891.9 1875.6,891.9 "/>
<polyline clip-path="url(#clip212)" style="stroke:#000000; stroke-linecap:round; stroke-linejoin:round; stroke-width:2; stroke-opacity:0.1; fill:none" points="212.459,622.548 1875.6,622.548 "/>
<polyline clip-path="url(#clip212)" style="stroke:#000000; stroke-linecap:round; stroke-linejoin:round; stroke-width:2; stroke-opacity:0.1; fill:none" points="212.459,353.196 1875.6,353.196 "/>
<polyline clip-path="url(#clip210)" style="stroke:#000000; stroke-linecap:round; stroke-linejoin:round; stroke-width:4; stroke-opacity:1; fill:none" points="212.459,1423.18 212.459,183.952 "/>
<polyline clip-path="url(#clip210)" style="stroke:#000000; stroke-linecap:round; stroke-linejoin:round; stroke-width:4; stroke-opacity:1; fill:none" points="212.459,1161.25 227.144,1161.25 "/>
<polyline clip-path="url(#clip210)" style="stroke:#000000; stroke-linecap:round; stroke-linejoin:round; stroke-width:4; stroke-opacity:1; fill:none" points="212.459,891.9 227.144,891.9 "/>
<polyline clip-path="url(#clip210)" style="stroke:#000000; stroke-linecap:round; stroke-linejoin:round; stroke-width:4; stroke-opacity:1; fill:none" points="212.459,622.548 227.144,622.548 "/>
<polyline clip-path="url(#clip210)" style="stroke:#000000; stroke-linecap:round; stroke-linejoin:round; stroke-width:4; stroke-opacity:1; fill:none" points="212.459,353.196 227.144,353.196 "/>
<path clip-path="url(#clip210)" d="M115.742 1161.7 L145.417 1161.7 L145.417 1165.64 L115.742 1165.64 L115.742 1161.7 Z" fill="#000000" fill-rule="nonzero" fill-opacity="1" /><path clip-path="url(#clip210)" d="M155.556 1143.97 L173.913 1143.97 L173.913 1147.91 L159.839 1147.91 L159.839 1156.38 Q160.857 1156.03 161.876 1155.87 Q162.894 1155.69 163.913 1155.69 Q169.7 1155.69 173.079 1158.86 Q176.459 1162.03 176.459 1167.44 Q176.459 1173.02 172.987 1176.12 Q169.514 1179.2 163.195 1179.2 Q161.019 1179.2 158.751 1178.83 Q156.505 1178.46 154.098 1177.72 L154.098 1173.02 Q156.181 1174.16 158.403 1174.71 Q160.626 1175.27 163.102 1175.27 Q167.107 1175.27 169.445 1173.16 Q171.783 1171.06 171.783 1167.44 Q171.783 1163.83 169.445 1161.73 Q167.107 1159.62 163.102 1159.62 Q161.227 1159.62 159.353 1160.04 Q157.501 1160.45 155.556 1161.33 L155.556 1143.97 Z" fill="#000000" fill-rule="nonzero" fill-opacity="1" /><path clip-path="url(#clip210)" d="M114.26 892.351 L143.936 892.351 L143.936 896.287 L114.26 896.287 L114.26 892.351 Z" fill="#000000" fill-rule="nonzero" fill-opacity="1" /><path clip-path="url(#clip210)" d="M166.876 878.694 L155.07 897.143 L166.876 897.143 L166.876 878.694 M165.649 874.62 L171.528 874.62 L171.528 897.143 L176.459 897.143 L176.459 901.032 L171.528 901.032 L171.528 909.18 L166.876 909.18 L166.876 901.032 L151.274 901.032 L151.274 896.518 L165.649 874.62 Z" fill="#000000" fill-rule="nonzero" fill-opacity="1" /><path clip-path="url(#clip210)" d="M115.394 622.999 L145.07 622.999 L145.07 626.934 L115.394 626.934 L115.394 622.999 Z" fill="#000000" fill-rule="nonzero" fill-opacity="1" /><path clip-path="url(#clip210)" d="M169.329 621.194 Q172.686 621.911 174.561 624.18 Q176.459 626.448 176.459 629.782 Q176.459 634.897 172.94 637.698 Q169.422 640.499 162.94 640.499 Q160.765 640.499 158.45 640.059 Q156.158 639.643 153.704 638.786 L153.704 634.272 Q155.649 635.407 157.964 635.985 Q160.278 636.564 162.802 636.564 Q167.2 636.564 169.491 634.828 Q171.806 633.092 171.806 629.782 Q171.806 626.726 169.653 625.013 Q167.524 623.277 163.704 623.277 L159.677 623.277 L159.677 619.434 L163.89 619.434 Q167.339 619.434 169.167 618.069 Q170.996 616.68 170.996 614.087 Q170.996 611.425 169.098 610.013 Q167.223 608.578 163.704 608.578 Q161.783 608.578 159.584 608.995 Q157.385 609.411 154.746 610.291 L154.746 606.124 Q157.408 605.384 159.723 605.013 Q162.061 604.643 164.121 604.643 Q169.445 604.643 172.547 607.073 Q175.649 609.481 175.649 613.601 Q175.649 616.472 174.005 618.462 Q172.362 620.43 169.329 621.194 Z" fill="#000000" fill-rule="nonzero" fill-opacity="1" /><path clip-path="url(#clip210)" d="M116.343 353.647 L146.019 353.647 L146.019 357.582 L116.343 357.582 L116.343 353.647 Z" fill="#000000" fill-rule="nonzero" fill-opacity="1" /><path clip-path="url(#clip210)" d="M160.14 366.541 L176.459 366.541 L176.459 370.476 L154.515 370.476 L154.515 366.541 Q157.177 363.786 161.76 359.156 Q166.366 354.504 167.547 353.161 Q169.792 350.638 170.672 348.902 Q171.575 347.143 171.575 345.453 Q171.575 342.698 169.63 340.962 Q167.709 339.226 164.607 339.226 Q162.408 339.226 159.954 339.99 Q157.524 340.754 154.746 342.305 L154.746 337.582 Q157.57 336.448 160.024 335.869 Q162.477 335.291 164.515 335.291 Q169.885 335.291 173.079 337.976 Q176.274 340.661 176.274 345.152 Q176.274 347.281 175.464 349.203 Q174.677 351.101 172.57 353.693 Q171.991 354.365 168.889 357.582 Q165.788 360.777 160.14 366.541 Z" fill="#000000" fill-rule="nonzero" fill-opacity="1" /><path clip-path="url(#clip210)" d="M14.479 893.545 L14.479 887.689 L64.0042 887.689 L64.0042 893.545 L14.479 893.545 Z" fill="#000000" fill-rule="nonzero" fill-opacity="1" /><path clip-path="url(#clip210)" d="M32.4621 861.621 Q32.4621 866.332 36.1542 869.069 Q39.8145 871.806 46.212 871.806 Q52.6095 871.806 56.3017 869.101 Q59.9619 866.364 59.9619 861.621 Q59.9619 856.942 56.2698 854.205 Q52.5777 851.468 46.212 851.468 Q39.8781 851.468 36.186 854.205 Q32.4621 856.942 32.4621 861.621 M27.4968 861.621 Q27.4968 853.982 32.4621 849.622 Q37.4273 845.261 46.212 845.261 Q54.9649 845.261 59.9619 849.622 Q64.9272 853.982 64.9272 861.621 Q64.9272 869.292 59.9619 873.652 Q54.9649 877.981 46.212 877.981 Q37.4273 877.981 32.4621 873.652 Q27.4968 869.292 27.4968 861.621 Z" fill="#000000" fill-rule="nonzero" fill-opacity="1" /><path clip-path="url(#clip210)" d="M45.7664 812.096 Q39.4007 812.096 35.8996 814.738 Q32.3984 817.348 32.3984 822.09 Q32.3984 826.801 35.8996 829.443 Q39.4007 832.053 45.7664 832.053 Q52.1003 832.053 55.6014 829.443 Q59.1026 826.801 59.1026 822.09 Q59.1026 817.348 55.6014 814.738 Q52.1003 812.096 45.7664 812.096 M59.58 806.24 Q68.683 806.24 73.1071 810.282 Q77.5631 814.324 77.5631 822.663 Q77.5631 825.75 77.0857 828.488 Q76.6401 831.225 75.6852 833.803 L69.9879 833.803 Q71.3884 831.225 72.0568 828.711 Q72.7252 826.196 72.7252 823.586 Q72.7252 817.825 69.7015 814.961 Q66.7096 812.096 60.6303 812.096 L57.7339 812.096 Q60.885 813.91 62.4446 816.743 Q64.0042 819.576 64.0042 823.522 Q64.0042 830.079 59.0071 834.09 Q54.01 838.1 45.7664 838.1 Q37.491 838.1 32.4939 834.09 Q27.4968 830.079 27.4968 823.522 Q27.4968 819.576 29.0564 816.743 Q30.616 813.91 33.7671 812.096 L28.3562 812.096 L28.3562 806.24 L59.58 806.24 Z" fill="#000000" fill-rule="nonzero" fill-opacity="1" /><path clip-path="url(#clip210)" d="M14.5426 780.108 Q21.8632 784.373 29.0246 786.442 Q36.186 788.511 43.5384 788.511 Q50.8908 788.511 58.1159 786.442 Q65.3091 784.342 72.5979 780.108 L72.5979 785.201 Q65.1182 789.975 57.8931 792.362 Q50.668 794.718 43.5384 794.718 Q36.4406 794.718 29.2474 792.362 Q22.0542 790.007 14.5426 785.201 L14.5426 780.108 Z" fill="#000000" fill-rule="nonzero" fill-opacity="1" /><path clip-path="url(#clip210)" d="M77.5631 769.35 L28.3562 769.35 L28.3562 763.494 L50.5089 763.494 Q55.124 763.494 57.4793 761.298 Q59.8346 759.102 59.8346 754.805 Q59.8346 750.094 57.161 747.739 Q54.4874 745.352 49.1402 745.352 L28.3562 745.352 L28.3562 739.495 L55.7924 739.495 Q57.7021 739.495 58.6251 738.954 Q59.5163 738.381 59.5163 737.203 Q59.5163 736.917 59.3572 736.408 Q59.1662 735.899 58.7843 735.007 L63.4949 735.007 Q64.227 736.312 64.5771 737.49 Q64.9272 738.636 64.9272 739.75 Q64.9272 741.946 63.6859 743.251 Q62.4446 744.556 59.8983 745.033 Q62.4127 746.625 63.6859 748.948 Q64.9272 751.24 64.9272 754.359 Q64.9272 757.606 63.6859 759.897 Q62.4446 762.157 59.9619 763.494 L77.5631 763.494 L77.5631 769.35 Z" fill="#000000" fill-rule="nonzero" fill-opacity="1" /><path clip-path="url(#clip210)" d="M14.5426 728.196 L14.5426 723.103 Q22.0542 718.329 29.2474 715.974 Q36.4406 713.587 43.5384 713.587 Q50.668 713.587 57.8931 715.974 Q65.1182 718.329 72.5979 723.103 L72.5979 728.196 Q65.3091 723.963 58.1159 721.894 Q50.8908 719.793 43.5384 719.793 Q36.186 719.793 29.0246 721.894 Q21.8632 723.963 14.5426 728.196 Z" fill="#000000" fill-rule="nonzero" fill-opacity="1" /><path clip-path="url(#clip210)" d="M604.284 35.2489 L604.284 43.2292 Q599.626 41.0012 595.494 39.9075 Q591.362 38.8137 587.514 38.8137 Q580.83 38.8137 577.184 41.4063 Q573.578 43.9989 573.578 48.779 Q573.578 52.7894 575.969 54.8553 Q578.399 56.8808 585.124 58.1366 L590.066 59.1493 Q599.221 60.8912 603.555 65.3067 Q607.93 69.6816 607.93 77.0543 Q607.93 85.8447 602.016 90.3817 Q596.142 94.9188 584.759 94.9188 Q580.465 94.9188 575.604 93.9465 Q570.783 92.9743 565.598 91.0704 L565.598 82.6445 Q570.581 85.4396 575.361 86.8575 Q580.141 88.2753 584.759 88.2753 Q591.767 88.2753 595.575 85.5207 Q599.383 82.766 599.383 77.6619 Q599.383 73.2059 596.628 70.6944 Q593.914 68.1828 587.676 66.927 L582.693 65.9548 Q573.538 64.1319 569.447 60.243 Q565.355 56.3542 565.355 49.4271 Q565.355 41.4063 570.986 36.7883 Q576.657 32.1703 586.582 32.1703 Q590.835 32.1703 595.251 32.9399 Q599.666 33.7096 604.284 35.2489 Z" fill="#000000" fill-rule="nonzero" fill-opacity="1" /><path clip-path="url(#clip210)" d="M637.947 53.5995 Q631.952 53.5995 628.468 58.2986 Q624.984 62.9571 624.984 71.0994 Q624.984 79.2418 628.428 83.9408 Q631.912 88.5994 637.947 88.5994 Q643.902 88.5994 647.386 83.9003 Q650.87 79.2013 650.87 71.0994 Q650.87 63.0381 647.386 58.3391 Q643.902 53.5995 637.947 53.5995 M637.947 47.2801 Q647.67 47.2801 653.219 53.5995 Q658.769 59.9189 658.769 71.0994 Q658.769 82.2394 653.219 88.5994 Q647.67 94.9188 637.947 94.9188 Q628.185 94.9188 622.635 88.5994 Q617.126 82.2394 617.126 71.0994 Q617.126 59.9189 622.635 53.5995 Q628.185 47.2801 637.947 47.2801 Z" fill="#000000" fill-rule="nonzero" fill-opacity="1" /><path clip-path="url(#clip210)" d="M670.355 75.839 L670.355 48.3739 L677.808 48.3739 L677.808 75.5554 Q677.808 81.9964 680.32 85.2371 Q682.831 88.4373 687.854 88.4373 Q693.89 88.4373 697.374 84.589 Q700.898 80.7406 700.898 74.0971 L700.898 48.3739 L708.352 48.3739 L708.352 93.744 L700.898 93.744 L700.898 86.7764 Q698.184 90.9084 694.579 92.9338 Q691.014 94.9188 686.275 94.9188 Q678.456 94.9188 674.405 90.0577 Q670.355 85.1966 670.355 75.839 M689.11 47.2801 L689.11 47.2801 Z" fill="#000000" fill-rule="nonzero" fill-opacity="1" /><path clip-path="url(#clip210)" d="M731.078 35.492 L731.078 48.3739 L746.431 48.3739 L746.431 54.1667 L731.078 54.1667 L731.078 78.7962 Q731.078 84.3459 732.576 85.9258 Q734.116 87.5056 738.774 87.5056 L746.431 87.5056 L746.431 93.744 L738.774 93.744 Q730.146 93.744 726.865 90.5438 Q723.583 87.3031 723.583 78.7962 L723.583 54.1667 L718.115 54.1667 L718.115 48.3739 L723.583 48.3739 L723.583 35.492 L731.078 35.492 Z" fill="#000000" fill-rule="nonzero" fill-opacity="1" /><path clip-path="url(#clip210)" d="M793.948 66.3599 L793.948 93.744 L786.494 93.744 L786.494 66.6029 Q786.494 60.162 783.982 56.9618 Q781.471 53.7616 776.448 53.7616 Q770.412 53.7616 766.928 57.6099 Q763.444 61.4583 763.444 68.1018 L763.444 93.744 L755.95 93.744 L755.95 30.7119 L763.444 30.7119 L763.444 55.4224 Q766.118 51.331 769.723 49.3056 Q773.369 47.2801 778.109 47.2801 Q785.927 47.2801 789.937 52.1412 Q793.948 56.9618 793.948 66.3599 Z" fill="#000000" fill-rule="nonzero" fill-opacity="1" /><path clip-path="url(#clip210)" d="M855.724 41.3253 L844.624 71.4235 L866.864 71.4235 L855.724 41.3253 M851.106 33.264 L860.383 33.264 L883.432 93.744 L874.925 93.744 L869.416 78.229 L842.153 78.229 L836.644 93.744 L828.016 93.744 L851.106 33.264 Z" fill="#000000" fill-rule="nonzero" fill-opacity="1" /><path clip-path="url(#clip210)" d="M911.951 30.7119 L911.951 36.9098 L904.821 36.9098 Q900.811 36.9098 899.231 38.5302 Q897.691 40.1505 897.691 44.3635 L897.691 48.3739 L909.966 48.3739 L909.966 54.1667 L897.691 54.1667 L897.691 93.744 L890.197 93.744 L890.197 54.1667 L883.068 54.1667 L883.068 48.3739 L890.197 48.3739 L890.197 45.2142 Q890.197 37.639 893.721 34.1957 Q897.246 30.7119 904.902 30.7119 L911.951 30.7119 Z" fill="#000000" fill-rule="nonzero" fill-opacity="1" /><path clip-path="url(#clip210)" d="M944.479 55.3414 Q943.223 54.6123 941.725 54.2882 Q940.266 53.9236 938.484 53.9236 Q932.165 53.9236 928.762 58.0555 Q925.4 62.1469 925.4 69.8437 L925.4 93.744 L917.905 93.744 L917.905 48.3739 L925.4 48.3739 L925.4 55.4224 Q927.749 51.2905 931.516 49.3056 Q935.284 47.2801 940.671 47.2801 Q941.441 47.2801 942.373 47.4017 Q943.305 47.4827 944.439 47.6852 L944.479 55.3414 Z" fill="#000000" fill-rule="nonzero" fill-opacity="1" /><path clip-path="url(#clip210)" d="M952.298 48.3739 L959.751 48.3739 L959.751 93.744 L952.298 93.744 L952.298 48.3739 M952.298 30.7119 L959.751 30.7119 L959.751 40.1505 L952.298 40.1505 L952.298 30.7119 Z" fill="#000000" fill-rule="nonzero" fill-opacity="1" /><path clip-path="url(#clip210)" d="M1008 50.1158 L1008 57.0833 Q1004.84 55.3414 1001.64 54.4907 Q998.478 53.5995 995.237 53.5995 Q987.986 53.5995 983.976 58.2176 Q979.965 62.7951 979.965 71.0994 Q979.965 79.4038 983.976 84.0218 Q987.986 88.5994 995.237 88.5994 Q998.478 88.5994 1001.64 87.7487 Q1004.84 86.8575 1008 85.1156 L1008 92.0021 Q1004.88 93.4604 1001.52 94.1896 Q998.194 94.9188 994.427 94.9188 Q984.178 94.9188 978.142 88.4778 Q972.106 82.0369 972.106 71.0994 Q972.106 60 978.183 53.64 Q984.3 47.2801 994.913 47.2801 Q998.356 47.2801 1001.64 48.0093 Q1004.92 48.6979 1008 50.1158 Z" fill="#000000" fill-rule="nonzero" fill-opacity="1" /><path clip-path="url(#clip210)" d="M1041.58 70.9374 Q1032.55 70.9374 1029.06 73.0034 Q1025.58 75.0693 1025.58 80.0519 Q1025.58 84.0218 1028.17 86.3714 Q1030.8 88.6804 1035.3 88.6804 Q1041.5 88.6804 1045.23 84.3054 Q1048.99 79.8899 1048.99 72.5983 L1048.99 70.9374 L1041.58 70.9374 M1056.45 67.8587 L1056.45 93.744 L1048.99 93.744 L1048.99 86.8575 Q1046.44 90.9894 1042.63 92.9743 Q1038.82 94.9188 1033.32 94.9188 Q1026.35 94.9188 1022.22 91.0299 Q1018.12 87.1005 1018.12 80.5381 Q1018.12 72.8818 1023.23 68.993 Q1028.37 65.1041 1038.54 65.1041 L1048.99 65.1041 L1048.99 64.3749 Q1048.99 59.2303 1045.59 56.4352 Q1042.23 53.5995 1036.11 53.5995 Q1032.22 53.5995 1028.54 54.5312 Q1024.85 55.463 1021.45 57.3264 L1021.45 50.4398 Q1025.54 48.86 1029.39 48.0903 Q1033.23 47.2801 1036.88 47.2801 Q1046.72 47.2801 1051.59 52.3843 Q1056.45 57.4884 1056.45 67.8587 Z" fill="#000000" fill-rule="nonzero" fill-opacity="1" /><path clip-path="url(#clip210)" d="M1109.51 66.3599 L1109.51 93.744 L1102.06 93.744 L1102.06 66.6029 Q1102.06 60.162 1099.55 56.9618 Q1097.04 53.7616 1092.01 53.7616 Q1085.98 53.7616 1082.49 57.6099 Q1079.01 61.4583 1079.01 68.1018 L1079.01 93.744 L1071.52 93.744 L1071.52 48.3739 L1079.01 48.3739 L1079.01 55.4224 Q1081.68 51.331 1085.29 49.3056 Q1088.93 47.2801 1093.67 47.2801 Q1101.49 47.2801 1105.5 52.1412 Q1109.51 56.9618 1109.51 66.3599 Z" fill="#000000" fill-rule="nonzero" fill-opacity="1" /><path clip-path="url(#clip210)" d="M1151.08 33.264 L1163.27 33.264 L1178.7 74.4212 L1194.22 33.264 L1206.41 33.264 L1206.41 93.744 L1198.43 93.744 L1198.43 40.6366 L1182.83 82.1179 L1174.61 82.1179 L1159.02 40.6366 L1159.02 93.744 L1151.08 93.744 L1151.08 33.264 Z" fill="#000000" fill-rule="nonzero" fill-opacity="1" /><path clip-path="url(#clip210)" d="M1239.91 53.5995 Q1233.92 53.5995 1230.43 58.2986 Q1226.95 62.9571 1226.95 71.0994 Q1226.95 79.2418 1230.39 83.9408 Q1233.88 88.5994 1239.91 88.5994 Q1245.87 88.5994 1249.35 83.9003 Q1252.83 79.2013 1252.83 71.0994 Q1252.83 63.0381 1249.35 58.3391 Q1245.87 53.5995 1239.91 53.5995 M1239.91 47.2801 Q1249.63 47.2801 1255.18 53.5995 Q1260.73 59.9189 1260.73 71.0994 Q1260.73 82.2394 1255.18 88.5994 Q1249.63 94.9188 1239.91 94.9188 Q1230.15 94.9188 1224.6 88.5994 Q1219.09 82.2394 1219.09 71.0994 Q1219.09 59.9189 1224.6 53.5995 Q1230.15 47.2801 1239.91 47.2801 Z" fill="#000000" fill-rule="nonzero" fill-opacity="1" /><path clip-path="url(#clip210)" d="M1299.38 55.3414 Q1298.12 54.6123 1296.62 54.2882 Q1295.17 53.9236 1293.38 53.9236 Q1287.06 53.9236 1283.66 58.0555 Q1280.3 62.1469 1280.3 69.8437 L1280.3 93.744 L1272.81 93.744 L1272.81 48.3739 L1280.3 48.3739 L1280.3 55.4224 Q1282.65 51.2905 1286.42 49.3056 Q1290.18 47.2801 1295.57 47.2801 Q1296.34 47.2801 1297.27 47.4017 Q1298.2 47.4827 1299.34 47.6852 L1299.38 55.3414 Z" fill="#000000" fill-rule="nonzero" fill-opacity="1" /><path clip-path="url(#clip210)" d="M1314.57 35.492 L1314.57 48.3739 L1329.92 48.3739 L1329.92 54.1667 L1314.57 54.1667 L1314.57 78.7962 Q1314.57 84.3459 1316.07 85.9258 Q1317.61 87.5056 1322.27 87.5056 L1329.92 87.5056 L1329.92 93.744 L1322.27 93.744 Q1313.64 93.744 1310.36 90.5438 Q1307.08 87.3031 1307.08 78.7962 L1307.08 54.1667 L1301.61 54.1667 L1301.61 48.3739 L1307.08 48.3739 L1307.08 35.492 L1314.57 35.492 Z" fill="#000000" fill-rule="nonzero" fill-opacity="1" /><path clip-path="url(#clip210)" d="M1360.35 70.9374 Q1351.31 70.9374 1347.83 73.0034 Q1344.34 75.0693 1344.34 80.0519 Q1344.34 84.0218 1346.94 86.3714 Q1349.57 88.6804 1354.07 88.6804 Q1360.26 88.6804 1363.99 84.3054 Q1367.76 79.8899 1367.76 72.5983 L1367.76 70.9374 L1360.35 70.9374 M1375.21 67.8587 L1375.21 93.744 L1367.76 93.744 L1367.76 86.8575 Q1365.21 90.9894 1361.4 92.9743 Q1357.59 94.9188 1352.08 94.9188 Q1345.11 94.9188 1340.98 91.0299 Q1336.89 87.1005 1336.89 80.5381 Q1336.89 72.8818 1341.99 68.993 Q1347.14 65.1041 1357.31 65.1041 L1367.76 65.1041 L1367.76 64.3749 Q1367.76 59.2303 1364.36 56.4352 Q1360.99 53.5995 1354.88 53.5995 Q1350.99 53.5995 1347.3 54.5312 Q1343.61 55.463 1340.21 57.3264 L1340.21 50.4398 Q1344.3 48.86 1348.15 48.0903 Q1352 47.2801 1355.65 47.2801 Q1365.49 47.2801 1370.35 52.3843 Q1375.21 57.4884 1375.21 67.8587 Z" fill="#000000" fill-rule="nonzero" fill-opacity="1" /><path clip-path="url(#clip210)" d="M1390.56 30.7119 L1398.02 30.7119 L1398.02 93.744 L1390.56 93.744 L1390.56 30.7119 Z" fill="#000000" fill-rule="nonzero" fill-opacity="1" /><path clip-path="url(#clip210)" d="M1413.61 48.3739 L1421.07 48.3739 L1421.07 93.744 L1413.61 93.744 L1413.61 48.3739 M1413.61 30.7119 L1421.07 30.7119 L1421.07 40.1505 L1413.61 40.1505 L1413.61 30.7119 Z" fill="#000000" fill-rule="nonzero" fill-opacity="1" /><path clip-path="url(#clip210)" d="M1444.04 35.492 L1444.04 48.3739 L1459.39 48.3739 L1459.39 54.1667 L1444.04 54.1667 L1444.04 78.7962 Q1444.04 84.3459 1445.54 85.9258 Q1447.07 87.5056 1451.73 87.5056 L1459.39 87.5056 L1459.39 93.744 L1451.73 93.744 Q1443.11 93.744 1439.82 90.5438 Q1436.54 87.3031 1436.54 78.7962 L1436.54 54.1667 L1431.07 54.1667 L1431.07 48.3739 L1436.54 48.3739 L1436.54 35.492 L1444.04 35.492 Z" fill="#000000" fill-rule="nonzero" fill-opacity="1" /><path clip-path="url(#clip210)" d="M1488.07 97.9569 Q1484.91 106.059 1481.91 108.53 Q1478.92 111.001 1473.89 111.001 L1467.94 111.001 L1467.94 104.762 L1472.31 104.762 Q1475.39 104.762 1477.09 103.304 Q1478.79 101.846 1480.86 96.4176 L1482.2 93.0148 L1463.85 48.3739 L1471.74 48.3739 L1485.92 83.8598 L1500.1 48.3739 L1508 48.3739 L1488.07 97.9569 Z" fill="#000000" fill-rule="nonzero" fill-opacity="1" /><path clip-path="url(#clip210)" d="M1514.16 83.4547 L1522.71 83.4547 L1522.71 93.744 L1514.16 93.744 L1514.16 83.4547 M1514.16 50.8449 L1522.71 50.8449 L1522.71 61.1342 L1514.16 61.1342 L1514.16 50.8449 Z" fill="#000000" fill-rule="nonzero" fill-opacity="1" /><path clip-path="url(#clip210)" d="M916.67 132.045 L905.57 162.144 L927.81 162.144 L916.67 132.045 M912.052 123.984 L921.328 123.984 L944.378 184.464 L935.871 184.464 L930.362 168.949 L903.099 168.949 L897.59 184.464 L888.962 184.464 L912.052 123.984 Z" fill="#000000" fill-rule="nonzero" fill-opacity="1" /><path clip-path="url(#clip210)" d="M952.885 121.432 L960.339 121.432 L960.339 184.464 L952.885 184.464 L952.885 121.432 Z" fill="#000000" fill-rule="nonzero" fill-opacity="1" /><path clip-path="url(#clip210)" d="M975.935 121.432 L983.388 121.432 L983.388 184.464 L975.935 184.464 L975.935 121.432 Z" fill="#000000" fill-rule="nonzero" fill-opacity="1" /><path clip-path="url(#clip210)" d="M1025.68 123.984 L1033.86 123.984 L1033.86 177.577 L1063.31 177.577 L1063.31 184.464 L1025.68 184.464 L1025.68 123.984 Z" fill="#000000" fill-rule="nonzero" fill-opacity="1" /><path clip-path="url(#clip210)" d="M1071.58 139.094 L1079.03 139.094 L1079.03 184.464 L1071.58 184.464 L1071.58 139.094 M1071.58 121.432 L1079.03 121.432 L1079.03 130.871 L1071.58 130.871 L1071.58 121.432 Z" fill="#000000" fill-rule="nonzero" fill-opacity="1" /><path clip-path="url(#clip210)" d="M1089.28 139.094 L1097.18 139.094 L1111.36 177.172 L1125.53 139.094 L1133.43 139.094 L1116.42 184.464 L1106.29 184.464 L1089.28 139.094 Z" fill="#000000" fill-rule="nonzero" fill-opacity="1" /><path clip-path="url(#clip210)" d="M1182.53 159.916 L1182.53 163.561 L1148.26 163.561 Q1148.75 171.258 1152.88 175.309 Q1157.05 179.319 1164.46 179.319 Q1168.76 179.319 1172.77 178.266 Q1176.82 177.213 1180.79 175.106 L1180.79 182.155 Q1176.78 183.856 1172.57 184.748 Q1168.35 185.639 1164.02 185.639 Q1153.16 185.639 1146.8 179.319 Q1140.48 173 1140.48 162.225 Q1140.48 151.085 1146.48 144.563 Q1152.51 138 1162.72 138 Q1171.88 138 1177.18 143.914 Q1182.53 149.788 1182.53 159.916 M1175.08 157.728 Q1175 151.611 1171.63 147.965 Q1168.31 144.32 1162.8 144.32 Q1156.56 144.32 1152.8 147.844 Q1149.07 151.368 1148.5 157.769 L1175.08 157.728 Z" fill="#000000" fill-rule="nonzero" fill-opacity="1" /><path clip-path="url(#clip210)" d="M1223.69 140.431 L1223.69 147.479 Q1220.53 145.859 1217.13 145.049 Q1213.72 144.239 1210.08 144.239 Q1204.53 144.239 1201.73 145.94 Q1198.98 147.641 1198.98 151.044 Q1198.98 153.637 1200.96 155.135 Q1202.95 156.594 1208.94 157.931 L1211.49 158.498 Q1219.43 160.199 1222.76 163.318 Q1226.12 166.397 1226.12 171.947 Q1226.12 178.266 1221.1 181.952 Q1216.11 185.639 1207.36 185.639 Q1203.72 185.639 1199.75 184.91 Q1195.82 184.221 1191.44 182.803 L1191.44 175.106 Q1195.57 177.253 1199.58 178.347 Q1203.6 179.4 1207.52 179.4 Q1212.79 179.4 1215.63 177.618 Q1218.46 175.795 1218.46 172.514 Q1218.46 169.476 1216.4 167.855 Q1214.37 166.235 1207.44 164.736 L1204.85 164.128 Q1197.92 162.67 1194.85 159.672 Q1191.77 156.634 1191.77 151.368 Q1191.77 144.968 1196.3 141.484 Q1200.84 138 1209.19 138 Q1213.32 138 1216.96 138.608 Q1220.61 139.215 1223.69 140.431 Z" fill="#000000" fill-rule="nonzero" fill-opacity="1" /><circle clip-path="url(#clip212)" cx="271.857" cy="1212.32" r="14.4" fill="#009af9" fill-rule="evenodd" fill-opacity="1" stroke="#000000" stroke-opacity="1" stroke-width="3.2"/>
<circle clip-path="url(#clip212)" cx="390.653" cy="1042.38" r="14.4" fill="#009af9" fill-rule="evenodd" fill-opacity="1" stroke="#000000" stroke-opacity="1" stroke-width="3.2"/>
<circle clip-path="url(#clip212)" cx="509.449" cy="977.355" r="14.4" fill="#009af9" fill-rule="evenodd" fill-opacity="1" stroke="#000000" stroke-opacity="1" stroke-width="3.2"/>
<circle clip-path="url(#clip212)" cx="628.245" cy="955.244" r="14.4" fill="#009af9" fill-rule="evenodd" fill-opacity="1" stroke="#000000" stroke-opacity="1" stroke-width="3.2"/>
<circle clip-path="url(#clip212)" cx="747.04" cy="948.542" r="14.4" fill="#009af9" fill-rule="evenodd" fill-opacity="1" stroke="#000000" stroke-opacity="1" stroke-width="3.2"/>
<circle clip-path="url(#clip212)" cx="865.836" cy="920.435" r="14.4" fill="#009af9" fill-rule="evenodd" fill-opacity="1" stroke="#000000" stroke-opacity="1" stroke-width="3.2"/>
<circle clip-path="url(#clip212)" cx="984.632" cy="868.429" r="14.4" fill="#009af9" fill-rule="evenodd" fill-opacity="1" stroke="#000000" stroke-opacity="1" stroke-width="3.2"/>
<circle clip-path="url(#clip212)" cx="1103.43" cy="825.085" r="14.4" fill="#009af9" fill-rule="evenodd" fill-opacity="1" stroke="#000000" stroke-opacity="1" stroke-width="3.2"/>
<circle clip-path="url(#clip212)" cx="1222.22" cy="751.544" r="14.4" fill="#009af9" fill-rule="evenodd" fill-opacity="1" stroke="#000000" stroke-opacity="1" stroke-width="3.2"/>
<circle clip-path="url(#clip212)" cx="1341.02" cy="689.244" r="14.4" fill="#009af9" fill-rule="evenodd" fill-opacity="1" stroke="#000000" stroke-opacity="1" stroke-width="3.2"/>
<circle clip-path="url(#clip212)" cx="1459.82" cy="591.092" r="14.4" fill="#009af9" fill-rule="evenodd" fill-opacity="1" stroke="#000000" stroke-opacity="1" stroke-width="3.2"/>
<circle clip-path="url(#clip212)" cx="1578.61" cy="537.296" r="14.4" fill="#009af9" fill-rule="evenodd" fill-opacity="1" stroke="#000000" stroke-opacity="1" stroke-width="3.2"/>
<circle clip-path="url(#clip212)" cx="1721.17" cy="381.104" r="14.4" fill="#009af9" fill-rule="evenodd" fill-opacity="1" stroke="#000000" stroke-opacity="1" stroke-width="3.2"/>
<circle clip-path="url(#clip212)" cx="1816.2" cy="219.025" r="14.4" fill="#009af9" fill-rule="evenodd" fill-opacity="1" stroke="#000000" stroke-opacity="1" stroke-width="3.2"/>
<circle clip-path="url(#clip212)" cx="271.857" cy="1187.35" r="14.4" fill="#e26f46" fill-rule="evenodd" fill-opacity="1" stroke="#000000" stroke-opacity="1" stroke-width="3.2"/>
<circle clip-path="url(#clip212)" cx="390.653" cy="975.802" r="14.4" fill="#e26f46" fill-rule="evenodd" fill-opacity="1" stroke="#000000" stroke-opacity="1" stroke-width="3.2"/>
<circle clip-path="url(#clip212)" cx="509.449" cy="868.73" r="14.4" fill="#e26f46" fill-rule="evenodd" fill-opacity="1" stroke="#000000" stroke-opacity="1" stroke-width="3.2"/>
<circle clip-path="url(#clip212)" cx="628.245" cy="844.6" r="14.4" fill="#e26f46" fill-rule="evenodd" fill-opacity="1" stroke="#000000" stroke-opacity="1" stroke-width="3.2"/>
<circle clip-path="url(#clip212)" cx="747.04" cy="840.422" r="14.4" fill="#e26f46" fill-rule="evenodd" fill-opacity="1" stroke="#000000" stroke-opacity="1" stroke-width="3.2"/>
<circle clip-path="url(#clip212)" cx="865.836" cy="845.771" r="14.4" fill="#e26f46" fill-rule="evenodd" fill-opacity="1" stroke="#000000" stroke-opacity="1" stroke-width="3.2"/>
<circle clip-path="url(#clip212)" cx="984.632" cy="826.434" r="14.4" fill="#e26f46" fill-rule="evenodd" fill-opacity="1" stroke="#000000" stroke-opacity="1" stroke-width="3.2"/>
<circle clip-path="url(#clip212)" cx="1103.43" cy="796.983" r="14.4" fill="#e26f46" fill-rule="evenodd" fill-opacity="1" stroke="#000000" stroke-opacity="1" stroke-width="3.2"/>
<circle clip-path="url(#clip212)" cx="1222.22" cy="756.141" r="14.4" fill="#e26f46" fill-rule="evenodd" fill-opacity="1" stroke="#000000" stroke-opacity="1" stroke-width="3.2"/>
<circle clip-path="url(#clip212)" cx="1341.02" cy="682.771" r="14.4" fill="#e26f46" fill-rule="evenodd" fill-opacity="1" stroke="#000000" stroke-opacity="1" stroke-width="3.2"/>
<circle clip-path="url(#clip212)" cx="1459.82" cy="624.819" r="14.4" fill="#e26f46" fill-rule="evenodd" fill-opacity="1" stroke="#000000" stroke-opacity="1" stroke-width="3.2"/>
<circle clip-path="url(#clip212)" cx="1578.61" cy="537.803" r="14.4" fill="#e26f46" fill-rule="evenodd" fill-opacity="1" stroke="#000000" stroke-opacity="1" stroke-width="3.2"/>
<circle clip-path="url(#clip212)" cx="1721.17" cy="393.325" r="14.4" fill="#e26f46" fill-rule="evenodd" fill-opacity="1" stroke="#000000" stroke-opacity="1" stroke-width="3.2"/>
<circle clip-path="url(#clip212)" cx="1816.2" cy="229.045" r="14.4" fill="#e26f46" fill-rule="evenodd" fill-opacity="1" stroke="#000000" stroke-opacity="1" stroke-width="3.2"/>
<circle clip-path="url(#clip212)" cx="271.857" cy="1277.04" r="14.4" fill="#3da44d" fill-rule="evenodd" fill-opacity="1" stroke="#000000" stroke-opacity="1" stroke-width="3.2"/>
<circle clip-path="url(#clip212)" cx="390.653" cy="1086.51" r="14.4" fill="#3da44d" fill-rule="evenodd" fill-opacity="1" stroke="#000000" stroke-opacity="1" stroke-width="3.2"/>
<circle clip-path="url(#clip212)" cx="509.449" cy="969.831" r="14.4" fill="#3da44d" fill-rule="evenodd" fill-opacity="1" stroke="#000000" stroke-opacity="1" stroke-width="3.2"/>
<circle clip-path="url(#clip212)" cx="628.245" cy="918.677" r="14.4" fill="#3da44d" fill-rule="evenodd" fill-opacity="1" stroke="#000000" stroke-opacity="1" stroke-width="3.2"/>
<circle clip-path="url(#clip212)" cx="747.04" cy="903.596" r="14.4" fill="#3da44d" fill-rule="evenodd" fill-opacity="1" stroke="#000000" stroke-opacity="1" stroke-width="3.2"/>
<circle clip-path="url(#clip212)" cx="865.836" cy="888.698" r="14.4" fill="#3da44d" fill-rule="evenodd" fill-opacity="1" stroke="#000000" stroke-opacity="1" stroke-width="3.2"/>
<circle clip-path="url(#clip212)" cx="984.632" cy="868.523" r="14.4" fill="#3da44d" fill-rule="evenodd" fill-opacity="1" stroke="#000000" stroke-opacity="1" stroke-width="3.2"/>
<circle clip-path="url(#clip212)" cx="1103.43" cy="833.069" r="14.4" fill="#3da44d" fill-rule="evenodd" fill-opacity="1" stroke="#000000" stroke-opacity="1" stroke-width="3.2"/>
<circle clip-path="url(#clip212)" cx="1222.22" cy="771.93" r="14.4" fill="#3da44d" fill-rule="evenodd" fill-opacity="1" stroke="#000000" stroke-opacity="1" stroke-width="3.2"/>
<circle clip-path="url(#clip212)" cx="1341.02" cy="706.64" r="14.4" fill="#3da44d" fill-rule="evenodd" fill-opacity="1" stroke="#000000" stroke-opacity="1" stroke-width="3.2"/>
<circle clip-path="url(#clip212)" cx="1459.82" cy="629.595" r="14.4" fill="#3da44d" fill-rule="evenodd" fill-opacity="1" stroke="#000000" stroke-opacity="1" stroke-width="3.2"/>
<circle clip-path="url(#clip212)" cx="1578.61" cy="554.216" r="14.4" fill="#3da44d" fill-rule="evenodd" fill-opacity="1" stroke="#000000" stroke-opacity="1" stroke-width="3.2"/>
<circle clip-path="url(#clip212)" cx="1721.17" cy="401.096" r="14.4" fill="#3da44d" fill-rule="evenodd" fill-opacity="1" stroke="#000000" stroke-opacity="1" stroke-width="3.2"/>
<circle clip-path="url(#clip212)" cx="1816.2" cy="232.482" r="14.4" fill="#3da44d" fill-rule="evenodd" fill-opacity="1" stroke="#000000" stroke-opacity="1" stroke-width="3.2"/>
<circle clip-path="url(#clip212)" cx="271.857" cy="1350.75" r="14.4" fill="#c271d2" fill-rule="evenodd" fill-opacity="1" stroke="#000000" stroke-opacity="1" stroke-width="3.2"/>
<circle clip-path="url(#clip212)" cx="390.653" cy="1222" r="14.4" fill="#c271d2" fill-rule="evenodd" fill-opacity="1" stroke="#000000" stroke-opacity="1" stroke-width="3.2"/>
<circle clip-path="url(#clip212)" cx="509.449" cy="1115.49" r="14.4" fill="#c271d2" fill-rule="evenodd" fill-opacity="1" stroke="#000000" stroke-opacity="1" stroke-width="3.2"/>
<circle clip-path="url(#clip212)" cx="628.245" cy="1053.74" r="14.4" fill="#c271d2" fill-rule="evenodd" fill-opacity="1" stroke="#000000" stroke-opacity="1" stroke-width="3.2"/>
<circle clip-path="url(#clip212)" cx="747.04" cy="1010.52" r="14.4" fill="#c271d2" fill-rule="evenodd" fill-opacity="1" stroke="#000000" stroke-opacity="1" stroke-width="3.2"/>
<circle clip-path="url(#clip212)" cx="865.836" cy="982.182" r="14.4" fill="#c271d2" fill-rule="evenodd" fill-opacity="1" stroke="#000000" stroke-opacity="1" stroke-width="3.2"/>
<circle clip-path="url(#clip212)" cx="984.632" cy="929.715" r="14.4" fill="#c271d2" fill-rule="evenodd" fill-opacity="1" stroke="#000000" stroke-opacity="1" stroke-width="3.2"/>
<circle clip-path="url(#clip212)" cx="1103.43" cy="882.024" r="14.4" fill="#c271d2" fill-rule="evenodd" fill-opacity="1" stroke="#000000" stroke-opacity="1" stroke-width="3.2"/>
<circle clip-path="url(#clip212)" cx="1222.22" cy="809.786" r="14.4" fill="#c271d2" fill-rule="evenodd" fill-opacity="1" stroke="#000000" stroke-opacity="1" stroke-width="3.2"/>
<circle clip-path="url(#clip212)" cx="1341.02" cy="729.192" r="14.4" fill="#c271d2" fill-rule="evenodd" fill-opacity="1" stroke="#000000" stroke-opacity="1" stroke-width="3.2"/>
<circle clip-path="url(#clip212)" cx="1459.82" cy="658.46" r="14.4" fill="#c271d2" fill-rule="evenodd" fill-opacity="1" stroke="#000000" stroke-opacity="1" stroke-width="3.2"/>
<circle clip-path="url(#clip212)" cx="1578.61" cy="569.419" r="14.4" fill="#c271d2" fill-rule="evenodd" fill-opacity="1" stroke="#000000" stroke-opacity="1" stroke-width="3.2"/>
<circle clip-path="url(#clip212)" cx="1721.17" cy="416.483" r="14.4" fill="#c271d2" fill-rule="evenodd" fill-opacity="1" stroke="#000000" stroke-opacity="1" stroke-width="3.2"/>
<circle clip-path="url(#clip212)" cx="1816.2" cy="241.447" r="14.4" fill="#c271d2" fill-rule="evenodd" fill-opacity="1" stroke="#000000" stroke-opacity="1" stroke-width="3.2"/>
<circle clip-path="url(#clip212)" cx="271.857" cy="1388.11" r="14.4" fill="#ac8d18" fill-rule="evenodd" fill-opacity="1" stroke="#000000" stroke-opacity="1" stroke-width="3.2"/>
<circle clip-path="url(#clip212)" cx="390.653" cy="1245.66" r="14.4" fill="#ac8d18" fill-rule="evenodd" fill-opacity="1" stroke="#000000" stroke-opacity="1" stroke-width="3.2"/>
<circle clip-path="url(#clip212)" cx="509.449" cy="1141.53" r="14.4" fill="#ac8d18" fill-rule="evenodd" fill-opacity="1" stroke="#000000" stroke-opacity="1" stroke-width="3.2"/>
<circle clip-path="url(#clip212)" cx="628.245" cy="1089.81" r="14.4" fill="#ac8d18" fill-rule="evenodd" fill-opacity="1" stroke="#000000" stroke-opacity="1" stroke-width="3.2"/>
<circle clip-path="url(#clip212)" cx="747.04" cy="1055.21" r="14.4" fill="#ac8d18" fill-rule="evenodd" fill-opacity="1" stroke="#000000" stroke-opacity="1" stroke-width="3.2"/>
<circle clip-path="url(#clip212)" cx="865.836" cy="1033.62" r="14.4" fill="#ac8d18" fill-rule="evenodd" fill-opacity="1" stroke="#000000" stroke-opacity="1" stroke-width="3.2"/>
<circle clip-path="url(#clip212)" cx="984.632" cy="984.785" r="14.4" fill="#ac8d18" fill-rule="evenodd" fill-opacity="1" stroke="#000000" stroke-opacity="1" stroke-width="3.2"/>
<circle clip-path="url(#clip212)" cx="1103.43" cy="938.073" r="14.4" fill="#ac8d18" fill-rule="evenodd" fill-opacity="1" stroke="#000000" stroke-opacity="1" stroke-width="3.2"/>
<circle clip-path="url(#clip212)" cx="1222.22" cy="865.487" r="14.4" fill="#ac8d18" fill-rule="evenodd" fill-opacity="1" stroke="#000000" stroke-opacity="1" stroke-width="3.2"/>
<circle clip-path="url(#clip212)" cx="1341.02" cy="781.563" r="14.4" fill="#ac8d18" fill-rule="evenodd" fill-opacity="1" stroke="#000000" stroke-opacity="1" stroke-width="3.2"/>
<circle clip-path="url(#clip212)" cx="1459.82" cy="707.67" r="14.4" fill="#ac8d18" fill-rule="evenodd" fill-opacity="1" stroke="#000000" stroke-opacity="1" stroke-width="3.2"/>
<circle clip-path="url(#clip212)" cx="1578.61" cy="613.606" r="14.4" fill="#ac8d18" fill-rule="evenodd" fill-opacity="1" stroke="#000000" stroke-opacity="1" stroke-width="3.2"/>
<circle clip-path="url(#clip212)" cx="1721.17" cy="453.371" r="14.4" fill="#ac8d18" fill-rule="evenodd" fill-opacity="1" stroke="#000000" stroke-opacity="1" stroke-width="3.2"/>
<circle clip-path="url(#clip212)" cx="1816.2" cy="262.522" r="14.4" fill="#ac8d18" fill-rule="evenodd" fill-opacity="1" stroke="#000000" stroke-opacity="1" stroke-width="3.2"/>
<polyline clip-path="url(#clip212)" style="stroke:#ff0000; stroke-linecap:round; stroke-linejoin:round; stroke-width:8; stroke-opacity:1; fill:none" points="271.857,1283.11 390.653,1114.47 509.449,1014.59 628.245,972.415 747.04,951.659 865.836,934.141 984.632,895.577 1103.43,855.047 1222.22,790.977 1341.02,717.882 1459.82,642.327 1578.61,562.468 1721.17,409.076 1816.2,236.904 "/>
<path clip-path="url(#clip210)" d="M1946.94 1000.39 L2352.76 1000.39 L2352.76 637.514 L1946.94 637.514  Z" fill="#ffffff" fill-rule="evenodd" fill-opacity="1"/>
<polyline clip-path="url(#clip210)" style="stroke:#000000; stroke-linecap:round; stroke-linejoin:round; stroke-width:4; stroke-opacity:1; fill:none" points="1946.94,1000.39 2352.76,1000.39 2352.76,637.514 1946.94,637.514 1946.94,1000.39 "/>
<circle clip-path="url(#clip210)" cx="2042.07" cy="689.354" r="20.48" fill="#009af9" fill-rule="evenodd" fill-opacity="1" stroke="#000000" stroke-opacity="1" stroke-width="4.55111"/>
<path clip-path="url(#clip210)" d="M2142.82 702.698 L2159.14 702.698 L2159.14 706.634 L2137.19 706.634 L2137.19 702.698 Q2139.86 699.944 2144.44 695.314 Q2149.05 690.661 2150.23 689.319 Q2152.47 686.796 2153.35 685.06 Q2154.25 683.3 2154.25 681.611 Q2154.25 678.856 2152.31 677.12 Q2150.39 675.384 2147.29 675.384 Q2145.09 675.384 2142.63 676.148 Q2140.2 676.912 2137.42 678.462 L2137.42 673.74 Q2140.25 672.606 2142.7 672.027 Q2145.16 671.449 2147.19 671.449 Q2152.56 671.449 2155.76 674.134 Q2158.95 676.819 2158.95 681.31 Q2158.95 683.439 2158.14 685.361 Q2157.36 687.259 2155.25 689.851 Q2154.67 690.523 2151.57 693.74 Q2148.47 696.935 2142.82 702.698 Z" fill="#000000" fill-rule="nonzero" fill-opacity="1" /><path clip-path="url(#clip210)" d="M2178.95 675.152 Q2175.34 675.152 2173.51 678.717 Q2171.71 682.259 2171.71 689.388 Q2171.71 696.495 2173.51 700.06 Q2175.34 703.601 2178.95 703.601 Q2182.59 703.601 2184.39 700.06 Q2186.22 696.495 2186.22 689.388 Q2186.22 682.259 2184.39 678.717 Q2182.59 675.152 2178.95 675.152 M2178.95 671.449 Q2184.76 671.449 2187.82 676.055 Q2190.9 680.638 2190.9 689.388 Q2190.9 698.115 2187.82 702.722 Q2184.76 707.305 2178.95 707.305 Q2173.14 707.305 2170.06 702.722 Q2167.01 698.115 2167.01 689.388 Q2167.01 680.638 2170.06 676.055 Q2173.14 671.449 2178.95 671.449 Z" fill="#000000" fill-rule="nonzero" fill-opacity="1" /><path clip-path="url(#clip210)" d="M2209.11 675.152 Q2205.5 675.152 2203.67 678.717 Q2201.87 682.259 2201.87 689.388 Q2201.87 696.495 2203.67 700.06 Q2205.5 703.601 2209.11 703.601 Q2212.75 703.601 2214.55 700.06 Q2216.38 696.495 2216.38 689.388 Q2216.38 682.259 2214.55 678.717 Q2212.75 675.152 2209.11 675.152 M2209.11 671.449 Q2214.92 671.449 2217.98 676.055 Q2221.06 680.638 2221.06 689.388 Q2221.06 698.115 2217.98 702.722 Q2214.92 707.305 2209.11 707.305 Q2203.3 707.305 2200.23 702.722 Q2197.17 698.115 2197.17 689.388 Q2197.17 680.638 2200.23 676.055 Q2203.3 671.449 2209.11 671.449 Z" fill="#000000" fill-rule="nonzero" fill-opacity="1" /><path clip-path="url(#clip210)" d="M2239.28 675.152 Q2235.67 675.152 2233.84 678.717 Q2232.03 682.259 2232.03 689.388 Q2232.03 696.495 2233.84 700.06 Q2235.67 703.601 2239.28 703.601 Q2242.91 703.601 2244.72 700.06 Q2246.54 696.495 2246.54 689.388 Q2246.54 682.259 2244.72 678.717 Q2242.91 675.152 2239.28 675.152 M2239.28 671.449 Q2245.09 671.449 2248.14 676.055 Q2251.22 680.638 2251.22 689.388 Q2251.22 698.115 2248.14 702.722 Q2245.09 707.305 2239.28 707.305 Q2233.47 707.305 2230.39 702.722 Q2227.33 698.115 2227.33 689.388 Q2227.33 680.638 2230.39 676.055 Q2233.47 671.449 2239.28 671.449 Z" fill="#000000" fill-rule="nonzero" fill-opacity="1" /><circle clip-path="url(#clip210)" cx="2042.07" cy="741.194" r="20.48" fill="#e26f46" fill-rule="evenodd" fill-opacity="1" stroke="#000000" stroke-opacity="1" stroke-width="4.55111"/>
<path clip-path="url(#clip210)" d="M2142.82 754.538 L2159.14 754.538 L2159.14 758.474 L2137.19 758.474 L2137.19 754.538 Q2139.86 751.784 2144.44 747.154 Q2149.05 742.501 2150.23 741.159 Q2152.47 738.636 2153.35 736.9 Q2154.25 735.14 2154.25 733.451 Q2154.25 730.696 2152.31 728.96 Q2150.39 727.224 2147.29 727.224 Q2145.09 727.224 2142.63 727.988 Q2140.2 728.752 2137.42 730.302 L2137.42 725.58 Q2140.25 724.446 2142.7 723.867 Q2145.16 723.289 2147.19 723.289 Q2152.56 723.289 2155.76 725.974 Q2158.95 728.659 2158.95 733.15 Q2158.95 735.279 2158.14 737.201 Q2157.36 739.099 2155.25 741.691 Q2154.67 742.363 2151.57 745.58 Q2148.47 748.775 2142.82 754.538 Z" fill="#000000" fill-rule="nonzero" fill-opacity="1" /><path clip-path="url(#clip210)" d="M2178.95 726.992 Q2175.34 726.992 2173.51 730.557 Q2171.71 734.099 2171.71 741.228 Q2171.71 748.335 2173.51 751.9 Q2175.34 755.441 2178.95 755.441 Q2182.59 755.441 2184.39 751.9 Q2186.22 748.335 2186.22 741.228 Q2186.22 734.099 2184.39 730.557 Q2182.59 726.992 2178.95 726.992 M2178.95 723.289 Q2184.76 723.289 2187.82 727.895 Q2190.9 732.478 2190.9 741.228 Q2190.9 749.955 2187.82 754.562 Q2184.76 759.145 2178.95 759.145 Q2173.14 759.145 2170.06 754.562 Q2167.01 749.955 2167.01 741.228 Q2167.01 732.478 2170.06 727.895 Q2173.14 723.289 2178.95 723.289 Z" fill="#000000" fill-rule="nonzero" fill-opacity="1" /><path clip-path="url(#clip210)" d="M2209.11 726.992 Q2205.5 726.992 2203.67 730.557 Q2201.87 734.099 2201.87 741.228 Q2201.87 748.335 2203.67 751.9 Q2205.5 755.441 2209.11 755.441 Q2212.75 755.441 2214.55 751.9 Q2216.38 748.335 2216.38 741.228 Q2216.38 734.099 2214.55 730.557 Q2212.75 726.992 2209.11 726.992 M2209.11 723.289 Q2214.92 723.289 2217.98 727.895 Q2221.06 732.478 2221.06 741.228 Q2221.06 749.955 2217.98 754.562 Q2214.92 759.145 2209.11 759.145 Q2203.3 759.145 2200.23 754.562 Q2197.17 749.955 2197.17 741.228 Q2197.17 732.478 2200.23 727.895 Q2203.3 723.289 2209.11 723.289 Z" fill="#000000" fill-rule="nonzero" fill-opacity="1" /><path clip-path="url(#clip210)" d="M2229.32 723.914 L2247.68 723.914 L2247.68 727.849 L2233.6 727.849 L2233.6 736.321 Q2234.62 735.974 2235.64 735.812 Q2236.66 735.626 2237.68 735.626 Q2243.47 735.626 2246.85 738.798 Q2250.23 741.969 2250.23 747.386 Q2250.23 752.964 2246.75 756.066 Q2243.28 759.145 2236.96 759.145 Q2234.79 759.145 2232.52 758.774 Q2230.27 758.404 2227.86 757.663 L2227.86 752.964 Q2229.95 754.099 2232.17 754.654 Q2234.39 755.21 2236.87 755.21 Q2240.87 755.21 2243.21 753.103 Q2245.55 750.997 2245.55 747.386 Q2245.55 743.775 2243.21 741.668 Q2240.87 739.562 2236.87 739.562 Q2234.99 739.562 2233.12 739.978 Q2231.27 740.395 2229.32 741.275 L2229.32 723.914 Z" fill="#000000" fill-rule="nonzero" fill-opacity="1" /><circle clip-path="url(#clip210)" cx="2042.07" cy="793.034" r="20.48" fill="#3da44d" fill-rule="evenodd" fill-opacity="1" stroke="#000000" stroke-opacity="1" stroke-width="4.55111"/>
<path clip-path="url(#clip210)" d="M2142.82 806.378 L2159.14 806.378 L2159.14 810.314 L2137.19 810.314 L2137.19 806.378 Q2139.86 803.624 2144.44 798.994 Q2149.05 794.341 2150.23 792.999 Q2152.47 790.476 2153.35 788.74 Q2154.25 786.98 2154.25 785.291 Q2154.25 782.536 2152.31 780.8 Q2150.39 779.064 2147.29 779.064 Q2145.09 779.064 2142.63 779.828 Q2140.2 780.592 2137.42 782.142 L2137.42 777.42 Q2140.25 776.286 2142.7 775.707 Q2145.16 775.129 2147.19 775.129 Q2152.56 775.129 2155.76 777.814 Q2158.95 780.499 2158.95 784.99 Q2158.95 787.119 2158.14 789.041 Q2157.36 790.939 2155.25 793.531 Q2154.67 794.203 2151.57 797.42 Q2148.47 800.615 2142.82 806.378 Z" fill="#000000" fill-rule="nonzero" fill-opacity="1" /><path clip-path="url(#clip210)" d="M2178.95 778.832 Q2175.34 778.832 2173.51 782.397 Q2171.71 785.939 2171.71 793.068 Q2171.71 800.175 2173.51 803.74 Q2175.34 807.281 2178.95 807.281 Q2182.59 807.281 2184.39 803.74 Q2186.22 800.175 2186.22 793.068 Q2186.22 785.939 2184.39 782.397 Q2182.59 778.832 2178.95 778.832 M2178.95 775.129 Q2184.76 775.129 2187.82 779.735 Q2190.9 784.318 2190.9 793.068 Q2190.9 801.795 2187.82 806.402 Q2184.76 810.985 2178.95 810.985 Q2173.14 810.985 2170.06 806.402 Q2167.01 801.795 2167.01 793.068 Q2167.01 784.318 2170.06 779.735 Q2173.14 775.129 2178.95 775.129 Z" fill="#000000" fill-rule="nonzero" fill-opacity="1" /><path clip-path="url(#clip210)" d="M2199.92 806.378 L2207.56 806.378 L2207.56 780.013 L2199.25 781.679 L2199.25 777.42 L2207.52 775.754 L2212.19 775.754 L2212.19 806.378 L2219.83 806.378 L2219.83 810.314 L2199.92 810.314 L2199.92 806.378 Z" fill="#000000" fill-rule="nonzero" fill-opacity="1" /><path clip-path="url(#clip210)" d="M2239.28 778.832 Q2235.67 778.832 2233.84 782.397 Q2232.03 785.939 2232.03 793.068 Q2232.03 800.175 2233.84 803.74 Q2235.67 807.281 2239.28 807.281 Q2242.91 807.281 2244.72 803.74 Q2246.54 800.175 2246.54 793.068 Q2246.54 785.939 2244.72 782.397 Q2242.91 778.832 2239.28 778.832 M2239.28 775.129 Q2245.09 775.129 2248.14 779.735 Q2251.22 784.318 2251.22 793.068 Q2251.22 801.795 2248.14 806.402 Q2245.09 810.985 2239.28 810.985 Q2233.47 810.985 2230.39 806.402 Q2227.33 801.795 2227.33 793.068 Q2227.33 784.318 2230.39 779.735 Q2233.47 775.129 2239.28 775.129 Z" fill="#000000" fill-rule="nonzero" fill-opacity="1" /><circle clip-path="url(#clip210)" cx="2042.07" cy="844.874" r="20.48" fill="#c271d2" fill-rule="evenodd" fill-opacity="1" stroke="#000000" stroke-opacity="1" stroke-width="4.55111"/>
<path clip-path="url(#clip210)" d="M2142.82 858.218 L2159.14 858.218 L2159.14 862.154 L2137.19 862.154 L2137.19 858.218 Q2139.86 855.464 2144.44 850.834 Q2149.05 846.181 2150.23 844.839 Q2152.47 842.316 2153.35 840.58 Q2154.25 838.82 2154.25 837.131 Q2154.25 834.376 2152.31 832.64 Q2150.39 830.904 2147.29 830.904 Q2145.09 830.904 2142.63 831.668 Q2140.2 832.432 2137.42 833.982 L2137.42 829.26 Q2140.25 828.126 2142.7 827.547 Q2145.16 826.969 2147.19 826.969 Q2152.56 826.969 2155.76 829.654 Q2158.95 832.339 2158.95 836.83 Q2158.95 838.959 2158.14 840.881 Q2157.36 842.779 2155.25 845.371 Q2154.67 846.043 2151.57 849.26 Q2148.47 852.455 2142.82 858.218 Z" fill="#000000" fill-rule="nonzero" fill-opacity="1" /><path clip-path="url(#clip210)" d="M2178.95 830.672 Q2175.34 830.672 2173.51 834.237 Q2171.71 837.779 2171.71 844.908 Q2171.71 852.015 2173.51 855.58 Q2175.34 859.121 2178.95 859.121 Q2182.59 859.121 2184.39 855.58 Q2186.22 852.015 2186.22 844.908 Q2186.22 837.779 2184.39 834.237 Q2182.59 830.672 2178.95 830.672 M2178.95 826.969 Q2184.76 826.969 2187.82 831.575 Q2190.9 836.158 2190.9 844.908 Q2190.9 853.635 2187.82 858.242 Q2184.76 862.825 2178.95 862.825 Q2173.14 862.825 2170.06 858.242 Q2167.01 853.635 2167.01 844.908 Q2167.01 836.158 2170.06 831.575 Q2173.14 826.969 2178.95 826.969 Z" fill="#000000" fill-rule="nonzero" fill-opacity="1" /><path clip-path="url(#clip210)" d="M2199.92 858.218 L2207.56 858.218 L2207.56 831.853 L2199.25 833.519 L2199.25 829.26 L2207.52 827.594 L2212.19 827.594 L2212.19 858.218 L2219.83 858.218 L2219.83 862.154 L2199.92 862.154 L2199.92 858.218 Z" fill="#000000" fill-rule="nonzero" fill-opacity="1" /><path clip-path="url(#clip210)" d="M2229.32 827.594 L2247.68 827.594 L2247.68 831.529 L2233.6 831.529 L2233.6 840.001 Q2234.62 839.654 2235.64 839.492 Q2236.66 839.306 2237.68 839.306 Q2243.47 839.306 2246.85 842.478 Q2250.23 845.649 2250.23 851.066 Q2250.23 856.644 2246.75 859.746 Q2243.28 862.825 2236.96 862.825 Q2234.79 862.825 2232.52 862.454 Q2230.27 862.084 2227.86 861.343 L2227.86 856.644 Q2229.95 857.779 2232.17 858.334 Q2234.39 858.89 2236.87 858.89 Q2240.87 858.89 2243.21 856.783 Q2245.55 854.677 2245.55 851.066 Q2245.55 847.455 2243.21 845.348 Q2240.87 843.242 2236.87 843.242 Q2234.99 843.242 2233.12 843.658 Q2231.27 844.075 2229.32 844.955 L2229.32 827.594 Z" fill="#000000" fill-rule="nonzero" fill-opacity="1" /><circle clip-path="url(#clip210)" cx="2042.07" cy="896.714" r="20.48" fill="#ac8d18" fill-rule="evenodd" fill-opacity="1" stroke="#000000" stroke-opacity="1" stroke-width="4.55111"/>
<path clip-path="url(#clip210)" d="M2142.82 910.058 L2159.14 910.058 L2159.14 913.994 L2137.19 913.994 L2137.19 910.058 Q2139.86 907.304 2144.44 902.674 Q2149.05 898.021 2150.23 896.679 Q2152.47 894.156 2153.35 892.42 Q2154.25 890.66 2154.25 888.971 Q2154.25 886.216 2152.31 884.48 Q2150.39 882.744 2147.29 882.744 Q2145.09 882.744 2142.63 883.508 Q2140.2 884.272 2137.42 885.822 L2137.42 881.1 Q2140.25 879.966 2142.7 879.387 Q2145.16 878.809 2147.19 878.809 Q2152.56 878.809 2155.76 881.494 Q2158.95 884.179 2158.95 888.67 Q2158.95 890.799 2158.14 892.721 Q2157.36 894.619 2155.25 897.211 Q2154.67 897.883 2151.57 901.1 Q2148.47 904.295 2142.82 910.058 Z" fill="#000000" fill-rule="nonzero" fill-opacity="1" /><path clip-path="url(#clip210)" d="M2178.95 882.512 Q2175.34 882.512 2173.51 886.077 Q2171.71 889.619 2171.71 896.748 Q2171.71 903.855 2173.51 907.42 Q2175.34 910.961 2178.95 910.961 Q2182.59 910.961 2184.39 907.42 Q2186.22 903.855 2186.22 896.748 Q2186.22 889.619 2184.39 886.077 Q2182.59 882.512 2178.95 882.512 M2178.95 878.809 Q2184.76 878.809 2187.82 883.415 Q2190.9 887.998 2190.9 896.748 Q2190.9 905.475 2187.82 910.082 Q2184.76 914.665 2178.95 914.665 Q2173.14 914.665 2170.06 910.082 Q2167.01 905.475 2167.01 896.748 Q2167.01 887.998 2170.06 883.415 Q2173.14 878.809 2178.95 878.809 Z" fill="#000000" fill-rule="nonzero" fill-opacity="1" /><path clip-path="url(#clip210)" d="M2199.92 910.058 L2207.56 910.058 L2207.56 883.693 L2199.25 885.359 L2199.25 881.1 L2207.52 879.434 L2212.19 879.434 L2212.19 910.058 L2219.83 910.058 L2219.83 913.994 L2199.92 913.994 L2199.92 910.058 Z" fill="#000000" fill-rule="nonzero" fill-opacity="1" /><path clip-path="url(#clip210)" d="M2229.42 913.276 L2229.42 909.017 Q2231.17 909.85 2232.98 910.29 Q2234.79 910.73 2236.52 910.73 Q2241.15 910.73 2243.58 907.628 Q2246.04 904.503 2246.38 898.16 Q2245.04 900.151 2242.98 901.216 Q2240.92 902.281 2238.42 902.281 Q2233.23 902.281 2230.2 899.156 Q2227.19 896.008 2227.19 890.568 Q2227.19 885.244 2230.34 882.026 Q2233.49 878.809 2238.72 878.809 Q2244.72 878.809 2247.86 883.415 Q2251.04 887.998 2251.04 896.748 Q2251.04 904.92 2247.15 909.804 Q2243.28 914.665 2236.73 914.665 Q2234.97 914.665 2233.17 914.318 Q2231.36 913.97 2229.42 913.276 M2238.72 898.623 Q2241.87 898.623 2243.7 896.471 Q2245.55 894.318 2245.55 890.568 Q2245.55 886.841 2243.7 884.688 Q2241.87 882.512 2238.72 882.512 Q2235.57 882.512 2233.72 884.688 Q2231.89 886.841 2231.89 890.568 Q2231.89 894.318 2233.72 896.471 Q2235.57 898.623 2238.72 898.623 Z" fill="#000000" fill-rule="nonzero" fill-opacity="1" /><polyline clip-path="url(#clip210)" style="stroke:#ff0000; stroke-linecap:round; stroke-linejoin:round; stroke-width:8; stroke-opacity:1; fill:none" points="1970.73,948.554 2113.41,948.554 "/>
<path clip-path="url(#clip210)" d="M2153.03 935.88 L2146.68 953.079 L2159.39 953.079 L2153.03 935.88 M2150.39 931.274 L2155.69 931.274 L2168.86 965.834 L2164 965.834 L2160.85 956.968 L2145.27 956.968 L2142.12 965.834 L2137.19 965.834 L2150.39 931.274 Z" fill="#000000" fill-rule="nonzero" fill-opacity="1" /><path clip-path="url(#clip210)" d="M2167.89 939.908 L2172.4 939.908 L2180.5 961.667 L2188.61 939.908 L2193.12 939.908 L2183.4 965.834 L2177.61 965.834 L2167.89 939.908 Z" fill="#000000" fill-rule="nonzero" fill-opacity="1" /><path clip-path="url(#clip210)" d="M2221.17 951.806 L2221.17 953.889 L2201.59 953.889 Q2201.87 958.287 2204.23 960.602 Q2206.61 962.894 2210.85 962.894 Q2213.3 962.894 2215.6 962.292 Q2217.91 961.69 2220.18 960.486 L2220.18 964.514 Q2217.89 965.486 2215.48 965.996 Q2213.07 966.505 2210.6 966.505 Q2204.39 966.505 2200.76 962.894 Q2197.15 959.283 2197.15 953.125 Q2197.15 946.76 2200.57 943.033 Q2204.02 939.283 2209.86 939.283 Q2215.09 939.283 2218.12 942.662 Q2221.17 946.019 2221.17 951.806 M2216.92 950.556 Q2216.87 947.061 2214.95 944.977 Q2213.05 942.894 2209.9 942.894 Q2206.34 942.894 2204.18 944.908 Q2202.05 946.922 2201.73 950.579 L2216.92 950.556 Z" fill="#000000" fill-rule="nonzero" fill-opacity="1" /><path clip-path="url(#clip210)" d="M2243.19 943.889 Q2242.47 943.473 2241.61 943.287 Q2240.78 943.079 2239.76 943.079 Q2236.15 943.079 2234.21 945.44 Q2232.29 947.778 2232.29 952.176 L2232.29 965.834 L2228 965.834 L2228 939.908 L2232.29 939.908 L2232.29 943.936 Q2233.63 941.574 2235.78 940.44 Q2237.93 939.283 2241.01 939.283 Q2241.45 939.283 2241.98 939.352 Q2242.52 939.399 2243.17 939.514 L2243.19 943.889 Z" fill="#000000" fill-rule="nonzero" fill-opacity="1" /><path clip-path="url(#clip210)" d="M2259.44 952.801 Q2254.28 952.801 2252.29 953.982 Q2250.29 955.162 2250.29 958.01 Q2250.29 960.278 2251.78 961.621 Q2253.28 962.94 2255.85 962.94 Q2259.39 962.94 2261.52 960.44 Q2263.67 957.917 2263.67 953.75 L2263.67 952.801 L2259.44 952.801 M2267.93 951.042 L2267.93 965.834 L2263.67 965.834 L2263.67 961.898 Q2262.22 964.26 2260.04 965.394 Q2257.86 966.505 2254.72 966.505 Q2250.73 966.505 2248.37 964.283 Q2246.04 962.037 2246.04 958.287 Q2246.04 953.912 2248.95 951.69 Q2251.89 949.468 2257.7 949.468 L2263.67 949.468 L2263.67 949.051 Q2263.67 946.111 2261.73 944.514 Q2259.81 942.894 2256.31 942.894 Q2254.09 942.894 2251.98 943.426 Q2249.88 943.959 2247.93 945.024 L2247.93 941.088 Q2250.27 940.186 2252.47 939.746 Q2254.67 939.283 2256.75 939.283 Q2262.38 939.283 2265.16 942.199 Q2267.93 945.116 2267.93 951.042 Z" fill="#000000" fill-rule="nonzero" fill-opacity="1" /><path clip-path="url(#clip210)" d="M2293.77 952.57 Q2293.77 947.94 2291.85 945.394 Q2289.95 942.848 2286.5 942.848 Q2283.07 942.848 2281.15 945.394 Q2279.25 947.94 2279.25 952.57 Q2279.25 957.176 2281.15 959.722 Q2283.07 962.269 2286.5 962.269 Q2289.95 962.269 2291.85 959.722 Q2293.77 957.176 2293.77 952.57 M2298.03 962.616 Q2298.03 969.236 2295.09 972.454 Q2292.15 975.695 2286.08 975.695 Q2283.84 975.695 2281.85 975.347 Q2279.85 975.023 2277.98 974.329 L2277.98 970.185 Q2279.85 971.204 2281.68 971.69 Q2283.51 972.176 2285.41 972.176 Q2289.6 972.176 2291.68 969.977 Q2293.77 967.801 2293.77 963.38 L2293.77 961.273 Q2292.45 963.565 2290.39 964.699 Q2288.33 965.834 2285.46 965.834 Q2280.69 965.834 2277.77 962.199 Q2274.85 958.565 2274.85 952.57 Q2274.85 946.551 2277.77 942.917 Q2280.69 939.283 2285.46 939.283 Q2288.33 939.283 2290.39 940.417 Q2292.45 941.551 2293.77 943.843 L2293.77 939.908 L2298.03 939.908 L2298.03 962.616 Z" fill="#000000" fill-rule="nonzero" fill-opacity="1" /><path clip-path="url(#clip210)" d="M2328.97 951.806 L2328.97 953.889 L2309.39 953.889 Q2309.67 958.287 2312.03 960.602 Q2314.41 962.894 2318.65 962.894 Q2321.1 962.894 2323.4 962.292 Q2325.71 961.69 2327.98 960.486 L2327.98 964.514 Q2325.69 965.486 2323.28 965.996 Q2320.87 966.505 2318.4 966.505 Q2312.19 966.505 2308.56 962.894 Q2304.95 959.283 2304.95 953.125 Q2304.95 946.76 2308.37 943.033 Q2311.82 939.283 2317.66 939.283 Q2322.89 939.283 2325.92 942.662 Q2328.97 946.019 2328.97 951.806 M2324.72 950.556 Q2324.67 947.061 2322.75 944.977 Q2320.85 942.894 2317.7 942.894 Q2314.14 942.894 2311.98 944.908 Q2309.85 946.922 2309.53 950.579 L2324.72 950.556 Z" fill="#000000" fill-rule="nonzero" fill-opacity="1" /></svg>
